<?xml version="1.0" encoding="UTF-8"?>
<svg width="27px" height="27px" viewBox="0 0 27 27" version="1.1" xmlns="http://www.w3.org/2000/svg" xmlns:xlink="http://www.w3.org/1999/xlink">
    <title>09A072F7-D5CB-4116-8B68-6637706CF96D</title>
    <g id="Brilla---Portal-Ciudadano---Enrolamiento" stroke="none" stroke-width="1" fill="none" fill-rule="evenodd">
        <g id="Enrolamiento-1.5-Copy-2" transform="translate(-417.000000, -327.000000)" fill="#E4002B" fill-rule="nonzero">
            <g id="Group" transform="translate(417.000000, 327.000000)">
                <path d="M23.0502291,3.94977089 C17.78276,-1.3165903 9.21636949,-1.3165903 3.94890036,3.94977089 C-1.31630012,9.21613207 -1.31630012,17.7847385 3.94890036,23.0510996 C6.58263493,25.6837263 10.0413636,26.9994328 13.5001451,26.9994328 C16.9589265,26.9994328 20.4164945,25.6836735 23.0502291,23.0510996 C28.3165903,17.7847912 28.3165903,9.21613207 23.0502291,3.94977089 Z M19.070346,17.4797381 C19.5104097,17.9198018 19.5104097,18.6311528 19.070346,19.0712165 C18.8508681,19.2906944 18.5627506,19.4010137 18.2745804,19.4010137 C17.9864629,19.4010137 17.6982927,19.2906944 17.4788148,19.0712165 L13.5000923,15.0913333 L9.52247782,19.0700558 C9.301892,19.2895337 9.01372176,19.399853 8.72671223,19.399853 C8.43859475,19.399853 8.15042452,19.2895337 7.93094664,19.0700558 C7.49088293,18.6299921 7.49088293,17.9175331 7.93094664,17.4785774 L11.9085611,13.4998549 L7.92983869,9.52113246 C7.48977499,9.08106876 7.48977499,8.3686098 7.92983869,7.92965404 C8.36879445,7.48959034 9.08125342,7.48959034 9.52131712,7.92965404 L13.5000396,11.9083765 L17.478762,7.92965404 C17.9188257,7.48959034 18.6301767,7.48959034 19.0702404,7.92965404 C19.5103041,8.3686098 19.5103041,9.08106876 19.0702404,9.52113246 L15.091518,13.4998549 L19.070346,17.4797381 Z" id="Shape"></path>
            </g>
        </g>
    </g>
</svg>